<svg width="40" height="52" fill="none" xmlns="http://www.w3.org/2000/svg">
  <path d="M16.977 2.935h.136c.253 0 .527.025.797.048 1.193.084 2.377.263 3.542.534V.654A21.09 21.09 0 0017.797.07 29.24 29.24 0 0016.319 0h-.427c-2.475.01-4.94.327-7.337.946-2.73.68-5.35 1.747-7.784 3.166v28.397a31.634 31.634 0 017.42-2.892 32.36 32.36 0 016.228-.956h.084a23.21 23.21 0 011.065-.03v-2.91a34.328 34.328 0 00-8.095 1.076c-.98.255-1.925.53-2.813.834l-1.012.344V5.833l.432-.208a28.275 28.275 0 0110.516-2.683.627.627 0 01.091 0c.403-.02.808-.03 1.205-.03h.455c.21.005.42.01.63.023z" fill="#AFB1B8"/>
  <path d="M24.11 5.933a25.913 25.913 0 01-4.234-.344c-.45-.076-.893-.168-1.323-.267v28.072c1.82.45 3.69.67 5.565.656a29.943 29.943 0 007.337-.944 29.815 29.815 0 007.786-3.166V2.05a31.777 31.777 0 01-7.417 2.893c-2.52.648-5.112.98-7.713.99zm11.225.485l1.012-.34v22.148l-.433.209a27.764 27.764 0 01-5.173 1.859c-2.163.56-4.387.847-6.62.857-.668 0-1.33-.028-1.973-.084l-.693-.061V8.228l.807.054a28.52 28.52 0 001.854.056 34.258 34.258 0 008.406-1.078 44.86 44.86 0 002.813-.842zM2.737 42.212a1.492 1.492 0 00-1.125-.455 1.674 1.674 0 00-.65.122 1.463 1.463 0 00-.832.842c-.08.2-.12.413-.117.628v3.794c-.01.267.042.533.149.778.09.194.219.368.38.509.151.127.33.22.52.27.185.051.376.078.567.078.212.002.42-.043.612-.132a1.597 1.597 0 00.96-1.465v-.425h-.992v.339a.882.882 0 01-.059.338.608.608 0 01-.144.214.697.697 0 01-.415.145.504.504 0 01-.465-.204.899.899 0 01-.132-.509v-3.537c-.006-.196.036-.39.122-.567a.507.507 0 01.485-.229.526.526 0 01.443.214.806.806 0 01.165.508v.328h.981v-.386a1.788 1.788 0 00-.121-.664 1.562 1.562 0 00-.332-.534zm5.892-.042a1.765 1.765 0 00-1.128-.418 1.731 1.731 0 00-.592.107 1.559 1.559 0 00-.908.842c-.1.232-.15.482-.145.735v3.639c-.006.255.043.51.145.745.09.195.22.369.384.508.152.14.33.25.524.32.19.07.39.106.592.107a1.714 1.714 0 001.128-.427c.158-.142.286-.315.374-.508.102-.235.151-.49.145-.745v-3.64a1.77 1.77 0 00-.145-.734 1.643 1.643 0 00-.374-.532zm-.463 4.904a.654.654 0 01-.197.527.727.727 0 01-.934 0 .651.651 0 01-.197-.526v-3.64a.654.654 0 01.197-.526.727.727 0 01.934 0 .651.651 0 01.197.527v3.639zm8.201 1.626v-6.89h-.953l-1.253 3.647h-.017L12.88 41.81h-.943v6.89h.984v-4.191h.018l.963 2.962h.491l.972-2.962h.017v4.19h.984zm5.591-6.406a1.37 1.37 0 00-.557-.377 2.184 2.184 0 00-.713-.106h-1.462v6.888h.981v-2.69h.506c.307.014.611-.05.886-.188a1.43 1.43 0 00.538-.527c.114-.183.19-.387.226-.6.038-.259.056-.52.053-.783.01-.33-.023-.661-.096-.984a1.466 1.466 0 00-.362-.633zm-.506 2.1a.868.868 0 01-.091.359.553.553 0 01-.253.241 1.007 1.007 0 01-.463.087h-.448v-2.342h.506a.941.941 0 01.443.086.556.556 0 01.23.255c.054.12.083.251.086.384v.457c0 .16.01.326 0 .473h-.01zm5.156-2.584h-.805l-1.518 6.89h.982l.288-1.48h1.338l.289 1.48h.982l-1.556-6.89zm-.906 4.471l.483-2.497h.018l.48 2.497h-.981zm7.248-.321h-.018l-1.483-4.15h-.943v6.89h.981v-4.143h.02l1.5 4.142h.924V41.81h-.981v4.15zm5.998-4.15l-.79 2.74h-.02l-.79-2.74H36.31l1.348 3.978v2.911h.982v-2.911l1.348-3.977h-1.04zM0 50.645h.473v1.327h.321v-1.327h.47v-.272H0v.272zm3.977-.272l-.62 1.599h.341l.132-.364h.637l.137.364h.35l-.636-1.6h-.341zm-.05.966l.217-.593.217.593h-.435zm3.981.043h.37v.206a.613.613 0 01-.38.135.404.404 0 01-.34-.153.669.669 0 01-.118-.417c0-.356.154-.534.46-.534a.337.337 0 01.362.255l.316-.062c-.068-.312-.293-.47-.678-.47a.804.804 0 00-.559.206.78.78 0 00-.23.615.873.873 0 00.205.6.776.776 0 00.607.235.96.96 0 00.678-.255v-.63h-.693v.27zm4.015-1.009h-.324v1.599h1.12V51.7h-.796v-1.327zm3.395 0h-.324v1.599h.324v-1.6zm3.318 1.067l-.655-1.067h-.314v1.599h.301v-1.045l.643 1.045h.321v-1.6h-.296v1.069zm3.001-.172h.797v-.272h-.797v-.351h.857v-.272h-1.181v1.599h1.214V51.7h-.89v-.432zm7.275-.265h-.63v-.63h-.321v1.599h.321v-.7h.63v.7h.321v-1.6h-.32v.631zm3.018.265h.8v-.272h-.8v-.351h.86v-.272h-1.18v1.599h1.212V51.7h-.89v-.432zm4.093 0c.278-.044.42-.191.42-.445a.383.383 0 00-.157-.356.904.904 0 00-.468-.094h-.678v1.599h.322v-.669h.063a.431.431 0 01.2.036.336.336 0 01.114.117l.349.508h.384l-.195-.312a1.115 1.115 0 00-.354-.384zm-.324-.222h-.237v-.401h.253a.84.84 0 01.326.038.21.21 0 01-.015.325.913.913 0 01-.327.038zm3.411.222h.796v-.272h-.797v-.351h.86v-.272h-1.183v1.599H40V51.7h-.89v-.432z" fill="#AFB1B8"/>
</svg>
