<svg width="59" height="47" fill="none" xmlns="http://www.w3.org/2000/svg">
  <path d="M4.488 39.278c.23.285.352.643.346 1.01a1.605 1.605 0 01-.536 1.277c-.447.339-1 .504-1.559.466H0v-6.405h2.683a2.284 2.284 0 011.487.426 1.464 1.464 0 01.52 1.198c.016.353-.095.7-.311.98a1.46 1.46 0 01-.817.5c.363.067.692.26.926.548zm-3.213-.967H2.42c.261.02.52-.056.73-.213a.76.76 0 00.246-.626.789.789 0 00-.243-.626 1.105 1.105 0 00-.751-.215H1.275v1.68zm1.988 2.456a.794.794 0 00.271-.65.81.81 0 00-.277-.658 1.18 1.18 0 00-.78-.231H1.276v1.761h1.218c.274.016.546-.062.77-.222zm6.709 1.264L8.48 39.528h-.561v2.503H6.635v-6.405h2.43a2.39 2.39 0 011.693.545 2.048 2.048 0 01.18 2.65c-.3.345-.709.575-1.159.65l1.59 2.56H9.972zM7.92 38.655h1.05c.73 0 1.094-.323 1.094-.97a.955.955 0 00-.268-.72 1.134 1.134 0 00-.826-.26H7.906l.013 1.95zm9.07 2.087h-2.558l-.452 1.29h-1.346l2.35-6.334h1.455l2.34 6.333h-1.346l-.442-1.289zm-.342-.97l-.935-2.703-.935 2.703h1.87zm9.128 2.259H24.5l-2.857-4.355v4.355h-1.272v-6.405h1.272l2.857 4.38v-4.38h1.275v6.405zm7.274-1.533a2.757 2.757 0 01-1.153 1.13c-.555.281-1.17.42-1.792.403h-2.27v-6.405h2.27a3.816 3.816 0 011.792.395c.488.246.89.636 1.153 1.117a3.735 3.735 0 010 3.36zm-1.459-.153a2.352 2.352 0 000-3.057 2.21 2.21 0 00-1.595-.545h-.885v4.146h.885a2.21 2.21 0 001.595-.544zM17.789 0S34.24 6.236 33.89 15.26v15.263s-16.439-6.24-16.096-15.263L17.789 0zm30.759 26.95A22.485 22.485 0 0159 23.082v-4.778a21.467 21.467 0 00-10.452 8.646z" fill="#AFB1B8"/>
  <path d="M46.68 28.389A22.382 22.382 0 0159 17.303V3.536s-23.43 8.883-22.934 21.733V47s1.044-.397 2.687-1.141c0-.695 0-1.396.075-2.1a22.605 22.605 0 017.853-15.37z" fill="#AFB1B8"/>
  <path d="M44.453 36.462a22.42 22.42 0 01.82-4.45 21.04 21.04 0 00-4.962 13.126 68.003 68.003 0 004.506-2.384 22.577 22.577 0 01-.364-6.292zm.931.078a21.586 21.586 0 00.29 5.698c6.401-3.846 13.594-9.788 13.317-16.969v-.625a20.971 20.971 0 00-12.18 5.713 21.496 21.496 0 00-1.427 6.183z" fill="#AFB1B8"/>
</svg>
